# xmcd
# Copyright (C) 1995-1998 Ti Kan
#
# Track frame offsets:
#       150
#       15602
#       33244
#       52502
#       65440
#       81244
#       109042
#       132793
#       155496
#       179548
#       201379
#       226387
#       245375
#       261397
#
# Disc length: 3887 seconds
#
# Revision: 0
# Processed by: cddbd v1.5.2PL0 Copyright (c) Steve Scherf et al.
# Submitted via: CD-Transfer v1.0
#
DISCID=b60f2d0e
DTITLE=Gogol Bordello - Eugene Hutz, Gogol Bordello
DYEAR=08
DGENRE=
TTITLE0=Ultimate
TTITLE1=Wunderlust King
TTITLE2=Zina - Marina
TTITLE3=Supertheory Of Supereverything
TTITLE4=Harem In Tuscany (Taranta)
TTITLE5=Dub The Frequencies Of Love
TTITLE6=My Strange Uncles From Abroad
TTITLE7=Tribal Connection
TTITLE8=Forces Of Victory
TTITLE9=Alcohol
TTITLE10=Suddenly (I Miss Carpaty)
TTITLE11=Your Country
TTITLE12=American Wedding
TTITLE13=Super Taranta
EXTD=
EXTT0=
EXTT1=
EXTT2=
EXTT3=
EXTT4=
EXTT5=
EXTT6=
EXTT7=
EXTT8=
EXTT9=
EXTT10=
EXTT11=
EXTT12=
EXTT13=
PLAYORDER=
